arm26_states
nRows=8
nColumns=17

# SIMM Motion File Header:
name arm26_states
datacolumns 17
datarows 8
otherdata 1
range 0.29884414999999886000 0.31326206999999873000
endheader
time	r_shoulder_elev	r_elbow_flex	r_shoulder_elev_u	r_elbow_flex_u	TRIlong.activation	TRIlong.fiber_length	TRIlat.activation	TRIlat.fiber_length	TRImed.activation	TRImed.fiber_length	BIClong.activation	BIClong.fiber_length	BICshort.activation	BICshort.fiber_length	BRA.activation	BRA.fiber_length
      0.29884414999999886000	    -11.55308361543329300000	     56.56534296387116000000	    -17.43044869072544900000	    171.93323272053340000000	      0.01001525582321278900	      0.15127689705755545000	      0.01957010471129331000	      0.09253891228164541600	      0.01957010471129331000	      0.08754667159392692800	      0.13085391283441886000	      0.12830983510679331000	      0.02611777823342991200	      0.12613068953515347000	      0.01032831684733868400	      0.08012902185972029000
      0.30146558999999884000	    -11.59754529232328000000	     57.01196948439407200000	    -16.49425547770389500000	    168.81938886185449000000	      0.01001520671191650900	      0.15141207767247436000	      0.01977807293616937900	      0.09270127057809830800	      0.01977807293616937900	      0.08770892757789051900	      0.13097862115854070000	      0.12802139067300966000	      0.02604054723341208900	      0.12584250865873159000	      0.01031732074991572300	      0.08000619239755149500
      0.30277630999999883000	    -11.61886198068718000000	     57.23222836612533400000	    -16.03322868000535800000	    167.26991557807517000000	      0.01001518273939527500	      0.15147931398593809000	      0.01988111837780169600	      0.09278119133811714400	      0.01988111837780169600	      0.08778880858938320500	      0.13103427426336239000	      0.12787827048212250000	      0.02600096613318054300	      0.12569963440582357000	      0.01031202575872615700	      0.07994523919940327300
      0.30408702999999881000	    -11.63957754752711300000	     57.45046004928694600000	    -15.57702919111441600000	    165.72615804373893000000	      0.01001515914410914900	      0.15154589471048829000	      0.01998360000770896300	      0.09286028974959846500	      0.01998360000770896300	      0.08786786488749162600	      0.13108594653278191000	      0.12773589839101795000	      0.02596076345482497400	      0.12555758271103670000	      0.01030685565405859000	      0.07988462168915044800
      0.30670846999999879000	    -11.67923090502048200000	     57.88087241598495300000	    -14.67939440868556000000	    162.65635128228763000000	      0.01001511303699040100	      0.15167768585540695000	      0.02018714042043883200	      0.09301603877485883900	      0.02018714042043883200	      0.08802353466952475600	      0.13117924498786765000	      0.12745343197037470000	      0.02587857287028589400	      0.12527597808168411000	      0.01029687413012709900	      0.07976441353141909600
      0.30932990999999876000	    -11.71655744817918300000	     58.30327032511950600000	    -13.80190431864991200000	    159.61226610353339000000	      0.01001506830293696900	      0.15180723065757165000	      0.02038910251159144600	      0.09316848529472972200	      0.02038910251159144600	      0.08817589119001093000	      0.13126137899277043000	      0.12717404967458071000	      0.02579406381418926700	      0.12499774811513355000	      0.01028735478634804600	      0.07964554459417884400
      0.31195134999999874000	    -11.75161061066404500000	     58.71772366927374500000	    -12.94503702302486800000	    156.59478053032848000000	      0.01001502489526641200	      0.15193564201106019000	      0.02058947454760157500	      0.09331770964644044200	      0.02058947454760157500	      0.08832503708380416700	      0.13133211493199015000	      0.12689780628829098000	      0.02570686686331931400	      0.12472294651531086000	      0.01027834282824867400	      0.07952806603468506900
      0.31326206999999873000	    -11.76830172550403100000	     58.92199343291124300000	    -12.52446642713819900000	    155.09734222225791000000	      0.01001500366669866800	      0.15199860232197393000	      0.02068914279893227500	      0.09339111290182315600	      0.02068914279893227500	      0.08839839786114218900	      0.13136375922077864000	      0.12676087799877309000	      0.02566225817144556300	      0.12458684630387359000	      0.01027402505512215200	      0.07946984567673236200
